<?xml version="1.0" encoding="UTF-8" standalone="no"?>
<!-- Created with Inkscape (http://www.inkscape.org/) -->

<svg
   xmlns:dc="http://purl.org/dc/elements/1.1/"
   xmlns:cc="http://creativecommons.org/ns#"
   xmlns:rdf="http://www.w3.org/1999/02/22-rdf-syntax-ns#"
   xmlns:svg="http://www.w3.org/2000/svg"
   xmlns="http://www.w3.org/2000/svg"
   xmlns:sodipodi="http://sodipodi.sourceforge.net/DTD/sodipodi-0.dtd"
   xmlns:inkscape="http://www.inkscape.org/namespaces/inkscape"
   width="50"
   height="25"
   id="svg2"
   version="1.1"
   inkscape:version="0.91 r13725"
   sodipodi:docname="star.svg">
  <defs
     id="defs4" />
  <sodipodi:namedview
     id="base"
     pagecolor="#ffffff"
     bordercolor="#666666"
     borderopacity="1.0"
     inkscape:pageopacity="0.0"
     inkscape:pageshadow="2"
     inkscape:zoom="7.9999996"
     inkscape:cx="25.585475"
     inkscape:cy="-7.5732253"
     inkscape:document-units="px"
     inkscape:current-layer="layer2"
     showgrid="true"
     showguides="true"
     inkscape:window-width="1920"
     inkscape:window-height="1049"
     inkscape:window-x="0"
     inkscape:window-y="31"
     inkscape:window-maximized="0"
     inkscape:guide-bbox="true">
    <inkscape:grid
       type="xygrid"
       id="grid2985"
       empspacing="5"
       visible="true"
       enabled="true"
       snapvisiblegridlinesonly="true" />
    <sodipodi:guide
       position="12.506952,15.733127"
       orientation="1,0"
       id="guide4747" />
    <sodipodi:guide
       position="37.520855,5.5684662"
       orientation="1,0"
       id="guide4749" />
  </sodipodi:namedview>
  <metadata
     id="metadata7">
    <rdf:RDF>
      <cc:Work
         rdf:about="">
        <dc:format>image/svg+xml</dc:format>
        <dc:type
           rdf:resource="http://purl.org/dc/dcmitype/StillImage" />
        <dc:title></dc:title>
      </cc:Work>
    </rdf:RDF>
  </metadata>
  <g
     inkscape:label="Layer 1"
     inkscape:groupmode="layer"
     id="layer1"
     transform="translate(0,-1027.3622)"
     style="display:inline" />
  <g
     inkscape:groupmode="layer"
     id="layer2"
     inkscape:label="Line"
     transform="translate(0,1)">
    <path
       sodipodi:type="star"
       style="display:inline;fill:none;fill-opacity:1;stroke:none"
       id="path2991"
       sodipodi:sides="5"
       sodipodi:cx="11.964286"
       sodipodi:cy="12.080357"
       sodipodi:r1="12.812578"
       sodipodi:r2="5.7656603"
       sodipodi:arg1="0.92381091"
       sodipodi:arg2="1.5521294"
       inkscape:flatsided="false"
       inkscape:rounded="0.13"
       inkscape:randomized="0"
       d="m 19.6875,22.303571 c -0.915368,0.691523 -6.468577,-4.479972 -7.615593,-4.458559 -1.147016,0.02141 -6.5033292,5.39658 -7.4438715,4.739705 -0.9405422,-0.656875 2.2618067,-7.53637 1.8869936,-8.62063 C 6.1402159,12.879827 -0.62706257,9.4466883 -0.29298076,8.3491939 0.04110104,7.2516994 7.5734701,8.1714333 8.4888391,7.4799101 9.404208,6.7883868 10.578113,-0.70857562 11.725129,-0.72998938 c 1.147016,-0.0214138 2.599927,7.42650838 3.540469,8.08338348 0.940543,0.6568752 8.433334,-0.543364 8.808147,0.540896 0.374813,1.08426 -6.259607,4.7675949 -6.593689,5.8650899 -0.334082,1.097494 3.122813,7.852668 2.207444,8.544191 z"
       transform="matrix(0.8215691,0.01306749,-0.01366505,0.85596857,5.2164012,2.0232672)"
       inkscape:transform-center-x="0.0074606518"
       inkscape:transform-center-y="-1.0350046" />
    <path
       style="fill:#323232;fill-rule:evenodd;stroke:none;stroke-width:1px;stroke-linecap:butt;stroke-linejoin:miter;stroke-opacity:1;fill-opacity:0.50196081"
       d="M 12.507812 5 C 7.7302749 4.9988673 -2.3684758e-15 12 0 12 C 1.1842379e-15 12 7.5589205 20.00125 12.507812 20 C 17.452801 19.998751 25 12 25 12 C 25 12 17.281306 5.0011318 12.507812 5 z M 8.9628906 8.9648438 A 5 5 0 0 0 7.5078125 12.486328 A 5 5 0 0 0 8.6328125 15.642578 C 6.0892127 14.174388 3.8007812 12.037109 3.8007812 12.037109 C 3.8007812 12.037109 6.3131735 10.164035 8.9628906 8.9648438 z M 16.074219 8.9824219 C 18.709855 10.188673 21.199219 12.058594 21.199219 12.058594 C 21.199219 12.058594 18.918522 14.18089 16.380859 15.642578 A 5 5 0 0 0 17.507812 12.486328 A 5 5 0 0 0 16.074219 8.9824219 z "
       transform="translate(0,-1)"
       id="path4751" />
    <path
       inkscape:connector-curvature="0"
       style="fill:#323232;fill-opacity:0.50196078;fill-rule:evenodd;stroke:none;stroke-width:1px;stroke-linecap:butt;stroke-linejoin:miter;stroke-opacity:1"
       d="m 46.026241,12.008765 c 0,0 -5.143392,3.984601 -8.584828,3.985372 -3.444152,7.71e-4 -8.460057,-4.006857 -8.460057,-4.006857 L 24.937501,11 c 0,0 7.55892,8.00125 12.507812,8 4.944989,-0.0012 12.492188,-8 12.492188,-8 z"
       id="path4751-6"
       sodipodi:nodetypes="csccscc" />
  </g>
</svg>
