<?xml version="1.0" encoding="UTF-8" standalone="no"?>
<!-- Created with Inkscape (http://www.inkscape.org/) -->

<svg
   xmlns:dc="http://purl.org/dc/elements/1.1/"
   xmlns:cc="http://creativecommons.org/ns#"
   xmlns:rdf="http://www.w3.org/1999/02/22-rdf-syntax-ns#"
   xmlns:svg="http://www.w3.org/2000/svg"
   xmlns="http://www.w3.org/2000/svg"
   xmlns:sodipodi="http://sodipodi.sourceforge.net/DTD/sodipodi-0.dtd"
   xmlns:inkscape="http://www.inkscape.org/namespaces/inkscape"
   width="50"
   height="25"
   id="svg2"
   version="1.1"
   inkscape:version="0.91 r13725"
   sodipodi:docname="star.svg">
  <defs
     id="defs4" />
  <sodipodi:namedview
     id="base"
     pagecolor="#ffffff"
     bordercolor="#666666"
     borderopacity="1.0"
     inkscape:pageopacity="0.0"
     inkscape:pageshadow="2"
     inkscape:zoom="11.313708"
     inkscape:cx="45.706165"
     inkscape:cy="9.8184899"
     inkscape:document-units="px"
     inkscape:current-layer="layer2"
     showgrid="false"
     showguides="false"
     inkscape:window-width="1920"
     inkscape:window-height="1065"
     inkscape:window-x="1280"
     inkscape:window-y="15"
     inkscape:window-maximized="0">
    <inkscape:grid
       type="xygrid"
       id="grid2985"
       empspacing="5"
       visible="true"
       enabled="true"
       snapvisiblegridlinesonly="true" />
  </sodipodi:namedview>
  <metadata
     id="metadata7">
    <rdf:RDF>
      <cc:Work
         rdf:about="">
        <dc:format>image/svg+xml</dc:format>
        <dc:type
           rdf:resource="http://purl.org/dc/dcmitype/StillImage" />
        <dc:title></dc:title>
      </cc:Work>
    </rdf:RDF>
  </metadata>
  <g
     inkscape:label="Layer 1"
     inkscape:groupmode="layer"
     id="layer1"
     transform="translate(0,-1027.3622)"
     style="display:inline" />
  <g
     inkscape:groupmode="layer"
     id="layer2"
     inkscape:label="Line"
     transform="translate(0,1)">
    <path
       sodipodi:type="star"
       style="display:inline;fill:none;fill-opacity:1;stroke:none"
       id="path2991"
       sodipodi:sides="5"
       sodipodi:cx="11.964286"
       sodipodi:cy="12.080357"
       sodipodi:r1="12.812578"
       sodipodi:r2="5.7656603"
       sodipodi:arg1="0.92381091"
       sodipodi:arg2="1.5521294"
       inkscape:flatsided="false"
       inkscape:rounded="0.13"
       inkscape:randomized="0"
       d="m 19.6875,22.303571 c -0.915368,0.691523 -6.468577,-4.479972 -7.615593,-4.458559 -1.147016,0.02141 -6.5033292,5.39658 -7.4438715,4.739705 -0.9405422,-0.656875 2.2618067,-7.53637 1.8869936,-8.62063 C 6.1402159,12.879827 -0.62706257,9.4466883 -0.29298076,8.3491939 0.04110104,7.2516994 7.5734701,8.1714333 8.4888391,7.4799101 9.404208,6.7883868 10.578113,-0.70857562 11.725129,-0.72998938 c 1.147016,-0.0214138 2.599927,7.42650838 3.540469,8.08338348 0.940543,0.6568752 8.433334,-0.543364 8.808147,0.540896 0.374813,1.08426 -6.259607,4.7675949 -6.593689,5.8650899 -0.334082,1.097494 3.122813,7.852668 2.207444,8.544191 z"
       transform="matrix(0.8215691,0.01306749,-0.01366505,0.85596857,5.2164012,2.0232672)"
       inkscape:transform-center-x="0.0074606518"
       inkscape:transform-center-y="-1.0350046" />
    <path
       sodipodi:type="star"
       style="display:inline;fill:#ffd400;fill-opacity:1;stroke:none"
       id="path2991-5"
       sodipodi:sides="5"
       sodipodi:cx="11.964286"
       sodipodi:cy="12.080357"
       sodipodi:r1="12.812578"
       sodipodi:r2="5.7656603"
       sodipodi:arg1="0.92381091"
       sodipodi:arg2="1.5521294"
       inkscape:flatsided="false"
       inkscape:rounded="0.13"
       inkscape:randomized="0"
       d="m 19.6875,22.303571 c -0.915368,0.691523 -6.468577,-4.479972 -7.615593,-4.458559 -1.147016,0.02141 -6.5033292,5.39658 -7.4438715,4.739705 -0.9405422,-0.656875 2.2618067,-7.53637 1.8869936,-8.62063 C 6.1402159,12.879827 -0.62706257,9.4466883 -0.29298076,8.3491939 0.04110104,7.2516994 7.5734701,8.1714333 8.4888391,7.4799101 9.404208,6.7883868 10.578113,-0.70857562 11.725129,-0.72998938 c 1.147016,-0.0214138 2.599927,7.42650838 3.540469,8.08338348 0.940543,0.6568752 8.433334,-0.543364 8.808147,0.540896 0.374813,1.08426 -6.259607,4.7675949 -6.593689,5.8650899 -0.334082,1.097494 3.122813,7.852668 2.207444,8.544191 z"
       inkscape:transform-center-x="0.0074610172"
       inkscape:transform-center-y="-1.0350045"
       transform="matrix(0.8215691,0.01306727,-0.01366505,0.85595464,27.874228,2.0235873)" />
    <path
       sodipodi:type="inkscape:offset"
       inkscape:radius="1.4933463"
       inkscape:original="M 11.724609 -0.73046875 C 10.577593 -0.70905499 9.4036502 6.7889454 8.4882812 7.4804688 C 7.5729123 8.1719919 0.04111305 7.2521149 -0.29296875 8.3496094 C -0.62705056 9.4471038 6.1408118 12.880584 6.515625 13.964844 C 6.8904381 15.049104 3.6883641 21.927109 4.6289062 22.583984 C 5.5694486 23.240859 10.92525 17.867113 12.072266 17.845703 C 13.219282 17.82429 18.772132 22.994257 19.6875 22.302734 C 20.602869 21.611211 17.146387 14.85726 17.480469 13.759766 C 17.814551 12.662271 24.449032 8.9787913 24.074219 7.8945312 C 23.699406 6.8102712 16.206168 8.0103908 15.265625 7.3535156 C 14.325083 6.6966405 12.871625 -0.75188255 11.724609 -0.73046875 z "
       style="color:#000000;clip-rule:nonzero;display:inline;overflow:visible;visibility:visible;opacity:1;isolation:auto;mix-blend-mode:normal;color-interpolation:sRGB;color-interpolation-filters:linearRGB;solid-color:#000000;solid-opacity:1;fill:none;fill-opacity:1;fill-rule:nonzero;stroke:#323232;stroke-width:2.97796535;stroke-linecap:butt;stroke-linejoin:miter;stroke-miterlimit:4;stroke-dasharray:none;stroke-dashoffset:0;stroke-opacity:0.50196078;color-rendering:auto;image-rendering:auto;shape-rendering:auto;text-rendering:auto;enable-background:accumulate"
       id="path4211"
       d="m 11.697266,-2.2226562 c -0.954071,0.017812 -1.376259,0.6024002 -1.632813,0.9746093 C 9.8078991,-0.87583773 9.6415949,-0.50197743 9.4765625,-0.08789062 9.1464978,0.74028298 8.861006,1.7270234 8.5820312,2.7207031 8.3030565,3.7143828 8.035276,4.7096815 7.796875,5.453125 c -0.1032882,0.3220999 -0.1952215,0.5631492 -0.2734375,0.75 -0.2010959,0.024227 -0.4582854,0.047245 -0.796875,0.058594 -0.780138,0.026147 -1.8098987,0.011022 -2.8417969,0.00781 -1.0318982,-0.00321 -2.0585885,0.00258 -2.94531248,0.09375 -0.443362,0.045586 -0.84726133,0.1029641 -1.27539062,0.2480469 -0.42812929,0.1450829 -1.1069301,0.3900148 -1.3847656,1.3027344 -0.2778723,0.9128402 0.1491311,1.4964482 0.4238281,1.8554687 0.274697,0.3590208 0.5771179,0.6310988 0.91992188,0.9160158 0.68560795,0.569833 1.53574192,1.146366 2.39453122,1.71875 0.8587893,0.572383 1.7221177,1.13533 2.3554688,1.591797 0.2749755,0.198179 0.4753861,0.359985 0.6289062,0.492187 -0.03913,0.198673 -0.095762,0.450376 -0.1894531,0.775391 -0.2161843,0.749944 -0.5491963,1.724788 -0.8710938,2.705078 -0.3218974,0.98029 -0.6349819,1.958651 -0.8222656,2.830078 -0.093642,0.435713 -0.1619446,0.837064 -0.15625,1.289063 0.00569,0.451999 0.028433,1.174474 0.8105469,1.720703 0.7821072,0.546224 1.4682021,0.320155 1.8945313,0.169922 0.4263291,-0.150233 0.7793802,-0.353904 1.15625,-0.591797 0.7537395,-0.475788 1.565373,-1.106445 2.375,-1.746094 0.8096272,-0.639649 1.6104932,-1.286923 2.2402342,-1.748047 0.272987,-0.199893 0.489019,-0.340179 0.662109,-0.445312 0.176926,0.09859 0.399227,0.230229 0.679688,0.419922 0.646535,0.437289 1.471724,1.055094 2.304688,1.664062 0.832963,0.608968 1.666508,1.208944 2.4375,1.65625 0.385495,0.223653 0.746094,0.412668 1.177734,0.546875 0.43164,0.134207 1.125542,0.334803 1.886719,-0.240234 0.761194,-0.575051 0.757269,-1.29615 0.746093,-1.748047 -0.01118,-0.451897 -0.09524,-0.851279 -0.205078,-1.283203 -0.219668,-0.86385 -0.567529,-1.831204 -0.925781,-2.798829 -0.358252,-0.967624 -0.726683,-1.928542 -0.970703,-2.669921 -0.105865,-0.321639 -0.17421,-0.570467 -0.220703,-0.767579 0.148461,-0.137861 0.343747,-0.307162 0.611328,-0.515624 0.615823,-0.479767 1.458158,-1.073722 2.294922,-1.677735 0.836763,-0.604012 1.664308,-1.211628 2.328125,-1.806641 0.331908,-0.2975058 0.623676,-0.5821455 0.884765,-0.9511714 0.26109,-0.3690258 0.6672,-0.9673649 0.355469,-1.8691406 -0.311741,-0.9018043 -1.00034,-1.120999 -1.433594,-1.25 -0.433253,-0.129001 -0.838408,-0.1721543 -1.283203,-0.2011719 -0.889589,-0.058035 -1.916079,-0.026067 -2.947265,0.015625 -1.031187,0.041692 -2.061121,0.096641 -2.841797,0.099609 -0.338963,0.00129 -0.596925,-0.012574 -0.798828,-0.029297 C 16.096474,5.8572147 15.996179,5.6189584 15.880859,5.3007812 15.614833,4.566789 15.31007,3.5821308 14.994141,2.5996094 c -0.31593,-0.9825215 -0.639202,-1.95820504 -1,-2.77343752 -0.1804,-0.40761625 -0.35862,-0.77241832 -0.628907,-1.13476568 -0.270287,-0.3623473 -0.713944,-0.9318733 -1.667968,-0.9140624 z"
       transform="matrix(0.8215691,0.01306727,-0.01366505,0.85595464,27.874228,2.0235823)" />
    <path
       sodipodi:type="inkscape:offset"
       inkscape:radius="1.4933463"
       inkscape:original="M 11.724609 -0.73046875 C 10.577593 -0.70905499 9.4036502 6.7889454 8.4882812 7.4804688 C 7.5729123 8.1719919 0.04111305 7.2521149 -0.29296875 8.3496094 C -0.62705056 9.4471038 6.1408118 12.880584 6.515625 13.964844 C 6.8904381 15.049104 3.6883641 21.927109 4.6289062 22.583984 C 5.5694486 23.240859 10.92525 17.867113 12.072266 17.845703 C 13.219282 17.82429 18.772132 22.994257 19.6875 22.302734 C 20.602869 21.611211 17.146387 14.85726 17.480469 13.759766 C 17.814551 12.662271 24.449032 8.9787913 24.074219 7.8945312 C 23.699406 6.8102712 16.206168 8.0103908 15.265625 7.3535156 C 14.325083 6.6966405 12.871625 -0.75188255 11.724609 -0.73046875 z "
       style="fill:none;stroke:#323232;stroke-width:2.97796535;stroke-miterlimit:4;stroke-dasharray:none;stroke-opacity:0.50196078"
       id="path4211-4"
       d="m 11.697266,-2.2226562 c -0.954071,0.017812 -1.376259,0.6024002 -1.632813,0.9746093 C 9.8078991,-0.87583773 9.6415949,-0.50197743 9.4765625,-0.08789062 9.1464978,0.74028298 8.861006,1.7270234 8.5820312,2.7207031 8.3030565,3.7143828 8.035276,4.7096815 7.796875,5.453125 c -0.1032882,0.3220999 -0.1952215,0.5631492 -0.2734375,0.75 -0.2010959,0.024227 -0.4582854,0.047245 -0.796875,0.058594 -0.780138,0.026147 -1.8098987,0.011022 -2.8417969,0.00781 -1.0318982,-0.00321 -2.0585885,0.00258 -2.94531248,0.09375 -0.443362,0.045586 -0.84726133,0.1029641 -1.27539062,0.2480469 -0.42812929,0.1450829 -1.1069301,0.3900148 -1.3847656,1.3027344 -0.2778723,0.9128402 0.1491311,1.4964482 0.4238281,1.8554687 0.274697,0.3590208 0.5771179,0.6310988 0.91992188,0.9160158 0.68560795,0.569833 1.53574192,1.146366 2.39453122,1.71875 0.8587893,0.572383 1.7221177,1.13533 2.3554688,1.591797 0.2749755,0.198179 0.4753861,0.359985 0.6289062,0.492187 -0.03913,0.198673 -0.095762,0.450376 -0.1894531,0.775391 -0.2161843,0.749944 -0.5491963,1.724788 -0.8710938,2.705078 -0.3218974,0.98029 -0.6349819,1.958651 -0.8222656,2.830078 -0.093642,0.435713 -0.1619446,0.837064 -0.15625,1.289063 0.00569,0.451999 0.028433,1.174474 0.8105469,1.720703 0.7821072,0.546224 1.4682021,0.320155 1.8945313,0.169922 0.4263291,-0.150233 0.7793802,-0.353904 1.15625,-0.591797 0.7537395,-0.475788 1.565373,-1.106445 2.375,-1.746094 0.8096272,-0.639649 1.6104932,-1.286923 2.2402342,-1.748047 0.272987,-0.199893 0.489019,-0.340179 0.662109,-0.445312 0.176926,0.09859 0.399227,0.230229 0.679688,0.419922 0.646535,0.437289 1.471724,1.055094 2.304688,1.664062 0.832963,0.608968 1.666508,1.208944 2.4375,1.65625 0.385495,0.223653 0.746094,0.412668 1.177734,0.546875 0.43164,0.134207 1.125542,0.334803 1.886719,-0.240234 0.761194,-0.575051 0.757269,-1.29615 0.746093,-1.748047 -0.01118,-0.451897 -0.09524,-0.851279 -0.205078,-1.283203 -0.219668,-0.86385 -0.567529,-1.831204 -0.925781,-2.798829 -0.358252,-0.967624 -0.726683,-1.928542 -0.970703,-2.669921 -0.105865,-0.321639 -0.17421,-0.570467 -0.220703,-0.767579 0.148461,-0.137861 0.343747,-0.307162 0.611328,-0.515624 0.615823,-0.479767 1.458158,-1.073722 2.294922,-1.677735 0.836763,-0.604012 1.664308,-1.211628 2.328125,-1.806641 0.331908,-0.2975058 0.623676,-0.5821455 0.884765,-0.9511714 0.26109,-0.3690258 0.6672,-0.9673649 0.355469,-1.8691406 -0.311741,-0.9018043 -1.00034,-1.120999 -1.433594,-1.25 -0.433253,-0.129001 -0.838408,-0.1721543 -1.283203,-0.2011719 -0.889589,-0.058035 -1.916079,-0.026067 -2.947265,0.015625 -1.031187,0.041692 -2.061121,0.096641 -2.841797,0.099609 -0.338963,0.00129 -0.596925,-0.012574 -0.798828,-0.029297 C 16.096474,5.8572147 15.996179,5.6189584 15.880859,5.3007812 15.614833,4.566789 15.31007,3.5821308 14.994141,2.5996094 c -0.31593,-0.9825215 -0.639202,-1.95820504 -1,-2.77343752 -0.1804,-0.40761625 -0.35862,-0.77241832 -0.628907,-1.13476568 -0.270287,-0.3623473 -0.713944,-0.9318733 -1.667968,-0.9140624 z"
       transform="matrix(0.8215691,0.01306727,-0.01366505,0.85595464,2.8083571,2.0235826)" />
  </g>
</svg>
